# xmcd
#
# Track frame offsets:
#	150
#	10218
#	23654
#	42338
#	54510
#	69049
#	84472
#	95613
#	106295
#	118586
#
# Disc length: 1835 seconds
#
# Revision: 0
# Processed by: cddbd v1.5.1PL2 Copyright (c) Steve Scherf et al.
# Submitted via: dBpowerAMP V4.0
#
DISCID=7207290a
DTITLE=Robert Wm Welch - New Walk
DYEAR=1900
DGENRE=Christian
TTITLE0=New Walk
TTITLE1=Two Step
TTITLE2=On Mama's Knee
TTITLE3=Washed in the Blood
TTITLE4=Strong Tower
TTITLE5=Live the Love
TTITLE6=Daddy Pick Me Up
TTITLE7=Just My Luck
TTITLE8=You Take the Wheel
TTITLE9=Just Three Nails
EXTD=Sliced Bread Music
EXTT0=
EXTT1=
EXTT2=
EXTT3=
EXTT4=
EXTT5=
EXTT6=
EXTT7=
EXTT8=
EXTT9=
PLAYORDER=
